<svg xmlns="http://www.w3.org/2000/svg" width="48" height="48" viewBox="0 0 48 48">
  <g fill="none" fill-rule="evenodd">
    <path fill="#3B5998" d="M24 48c23.815 0 24-10.745 24-24S47.815 0 24 0 0 10.745 0 24s.185 24 24 24z"/>
    <path fill="#FFF" d="M31.116 16H16.884a.884.884 0 0 0-.884.884v14.232c0 .488.396.884.884.884h7.663v-6.175h-2.09V23.39h2.08v-1.777c0-2.069 1.26-3.194 3.104-3.194.626.002 1.252.037 1.875.106v2.159H28.24c-1.002 0-1.195.474-1.195 1.173v1.544h2.4l-.312 2.423h-2.088V32h4.07a.884.884 0 0 0 .884-.884V16.884a.884.884 0 0 0-.884-.884z"/>
  </g>
</svg>
