<svg xmlns="http://www.w3.org/2000/svg" xmlns:xlink="http://www.w3.org/1999/xlink" width="48" height="48" viewBox="0 0 48 48">
  <defs>
    <linearGradient id="a" x1="0%" x2="90.51%" y1="0%" y2="89.622%">
      <stop offset="0%" stop-color="#1400C8"/>
      <stop offset="11.606%" stop-color="#2D00C5"/>
      <stop offset="31.293%" stop-color="#B900B4"/>
      <stop offset="66.521%" stop-color="#F50000"/>
      <stop offset="100%" stop-color="#FFCF00"/>
    </linearGradient>
    <path id="b" d="M0 .005h15.995v15.993H0z"/>
  </defs>
  <g fill="none" fill-rule="evenodd">
    <path fill="url(#a)" fill-rule="nonzero" d="M24 48c23.815 0 24-10.745 24-24S47.815 0 24 0 0 10.745 0 24s.185 24 24 24z"/>
    <g transform="translate(16 16)">
      <mask id="c" fill="#fff">
        <use xlink:href="#b"/>
      </mask>
      <path fill="#FFF" d="M7.997.005c-2.172 0-2.444.01-3.297.048C3.85.092 3.268.227 2.76.425a3.92 3.92 0 0 0-1.417.922A3.92 3.92 0 0 0 .42 2.764c-.198.509-.333 1.09-.372 1.941C.01 5.558 0 5.831 0 8.003s.01 2.444.048 3.297c.039.851.174 1.432.372 1.941.204.526.478.972.922 1.417.445.444.89.718 1.417.922.509.198 1.09.333 1.941.372.853.039 1.125.048 3.297.048s2.445-.01 3.298-.048c.851-.039 1.432-.174 1.941-.372a3.92 3.92 0 0 0 1.417-.922 3.92 3.92 0 0 0 .922-1.417c.198-.509.333-1.09.372-1.941.039-.853.048-1.125.048-3.297s-.01-2.445-.048-3.298c-.039-.851-.174-1.432-.372-1.941a3.92 3.92 0 0 0-.922-1.417 3.92 3.92 0 0 0-1.417-.922c-.509-.198-1.09-.333-1.941-.372-.853-.039-1.126-.048-3.298-.048zm0 1.441c2.136 0 2.389.008 3.232.047.78.035 1.203.166 1.485.275.373.145.64.318.92.598.28.28.453.547.598.92.11.282.24.705.275 1.485.039.843.047 1.096.047 3.232 0 2.135-.008 2.388-.047 3.231-.035.78-.166 1.203-.275 1.485-.145.374-.318.64-.598.92-.28.28-.547.453-.92.598-.282.11-.705.24-1.485.275-.843.039-1.096.047-3.232.047-2.135 0-2.388-.008-3.231-.047-.78-.035-1.203-.165-1.485-.275a2.478 2.478 0 0 1-.92-.598 2.478 2.478 0 0 1-.598-.92c-.11-.282-.24-.705-.275-1.485-.039-.843-.047-1.096-.047-3.231 0-2.136.008-2.389.047-3.232.035-.78.165-1.203.275-1.485.145-.373.318-.64.598-.92.28-.28.546-.453.92-.598.282-.11.705-.24 1.485-.275.843-.039 1.096-.047 3.231-.047z" mask="url(#c)"/>
    </g>
    <path fill="#FFF" d="M23.997 26.668a2.666 2.666 0 1 1 0-5.331 2.666 2.666 0 0 1 0 5.331zm0-6.772a4.107 4.107 0 1 0 0 8.213 4.107 4.107 0 0 0 0-8.213zM29.226 19.733a.96.96 0 1 1-1.92 0 .96.96 0 0 1 1.92 0"/>
  </g>
</svg>
